<?xml version="1.0" encoding="UTF-8"?><svg id="FinWave_logos" xmlns="http://www.w3.org/2000/svg" viewBox="0 0 1379.85 691.09"><defs><style>.cls-1{fill:#5d9eff;}</style></defs><g id="FivWave"><path id="Wave" class="cls-1" d="M1045.28,586.76c-202.34-13.19-421.34-67.56-620-68.96-195.31,7.34-356.34,101.16-406,153.91,181.45-108.29,368.65-109.86,509-106,154.32,8.78,252.39,42.09,520,51.03,221.2-.32,286.09-54.09,319.72-81.95-51.9,19.54-152.88,60.47-322.72,51.97Z"/><path id="Fin" class="cls-1" d="M425.28,517.8c198.66,1.4,417.66,55.77,620,68.96,167.06,8.36,270.08-32.08,322.72-51.97-155.11,5.51-310.91-37.3-403.72-81.08-87.21-42.99-147.63-156.12-195-228-41.23-74.36-108.76-174.95-160-204-51.18-25.05-56.04-11.31-43,32,17.52,84.61,44.3,284.02-10,362-51.86,74.46-170.51,88.14-231.75,113.55,32.2-6.08,65.93-10.15,100.75-11.46Z"/></g></svg>
